# Blender v2.93.5 OBJ File: ''
# www.blender.org
mtllib Cube.mtl
o Icosphere
v -0.859142 -0.105243 0.458203
v -0.867580 -0.500915 0.082631
v -0.951060 -0.000000 0.309015
v -0.587787 -0.000000 0.809018
v -0.273825 -0.433788 0.858545
v -0.280357 -0.101727 0.983677
v -0.525733 -0.850652 -0.000000
v -0.155650 -0.872655 0.456275
v -0.179469 -1.009633 0.086208
v -0.688191 -0.525738 0.499997
v -0.788491 -0.186134 0.572874
v -0.771513 -0.628054 0.157453
v -0.790449 -0.372875 0.371544
v -0.299014 -0.673447 0.717792
v -0.389722 -0.381888 0.792508
v -0.372148 -0.783229 0.361545
v -0.870066 0.159248 0.386185
v -0.892052 0.237401 0.301947
v -0.835147 0.533682 0.103225
v -0.585150 0.100014 0.782638
v -0.291680 0.240693 0.897670
v -0.221038 0.427206 0.870225
v -0.765083 0.264920 0.555861
v -0.706783 0.535311 0.473945
v -0.793051 0.379530 0.374694
v -0.716715 0.628052 0.326097
v -0.384401 0.374563 0.789700
v -0.262870 0.525735 0.809011
v -0.386751 0.798571 0.397305
v -0.473510 0.825092 0.297464
v -0.120169 0.830182 0.443348
v -0.098468 1.000577 0.244637
v -0.891195 -0.412113 -0.092184
v -0.951060 0.000001 -0.309011
v -0.859141 -0.105243 -0.458202
v -0.511493 -0.827616 -0.101875
v -0.197573 -0.934699 -0.233711
v -0.155650 -0.872654 -0.456273
v -0.740986 -0.583983 -0.250223
v -0.790449 -0.372874 -0.371543
v -0.688190 -0.525738 -0.499995
v -0.788491 -0.186132 -0.572871
v -0.372148 -0.783229 -0.361544
v -0.299013 -0.673447 -0.717789
v -0.389721 -0.381886 -0.792507
v -0.587787 -0.000000 -0.809016
v -0.273824 -0.433786 -0.858544
v -0.280358 -0.101727 -0.983673
v -0.892052 0.237401 -0.301944
v -0.835147 0.533682 -0.103224
v -0.870066 0.159248 -0.386182
v -0.793050 0.379529 -0.374693
v -0.716716 0.628052 -0.326092
v -0.765083 0.264918 -0.555859
v -0.706784 0.535309 -0.473943
v -0.386748 0.798571 -0.397305
v -0.384400 0.374560 -0.789699
v -0.262874 0.525738 -0.809003
v -0.473509 0.825092 -0.297460
v -0.177397 0.931748 -0.334254
v -0.120165 0.830181 -0.443347
v -0.585152 0.100011 -0.782634
v -0.291681 0.240692 -0.897667
v -0.221038 0.427204 -0.870223
v 0.221034 -0.427209 0.870225
v 0.257307 -0.066495 0.985314
v 0.587783 0.000000 0.809018
v 0.120172 -0.830183 0.443349
v 0.244196 -0.970517 0.206376
v 0.473510 -0.825093 0.297463
v 0.262866 -0.525738 0.809012
v 0.384400 -0.374562 0.789700
v 0.386754 -0.798571 0.397305
v 0.706781 -0.535312 0.473946
v 0.799493 -0.194618 0.580863
v 0.716711 -0.628055 0.326097
v 0.793050 -0.379528 0.374691
v 0.865820 -0.109451 0.461898
v 0.835145 -0.533684 0.103222
v 0.951057 -0.000000 0.309015
v 0.295818 0.248508 0.910452
v 0.273822 0.433787 0.858544
v 0.555291 0.133871 0.794751
v 0.389721 0.381886 0.792507
v 0.299011 0.673445 0.717791
v 0.372146 0.783228 0.361541
v 0.752661 0.262290 0.546841
v 0.688187 0.525736 0.499997
v 0.790448 0.372872 0.371540
v 0.771508 0.628053 0.157452
v 0.155647 0.872653 0.456273
v 0.216710 0.970932 0.157451
v 0.525730 0.850650 0.000000
v 0.839185 0.108980 0.445147
v 0.912101 0.235967 0.239476
v 0.867578 0.500910 0.082628
v 0.425322 -0.850656 -0.309008
v 0.120169 -0.830182 -0.443348
v 0.473509 -0.825094 -0.297460
v 0.386751 -0.798571 -0.397304
v 0.262866 -0.525738 -0.809008
v 0.384399 -0.374559 -0.789699
v 0.716712 -0.628056 -0.326093
v 0.793050 -0.379527 -0.374691
v 0.706782 -0.535309 -0.473944
v 0.799492 -0.194618 -0.580860
v 0.221033 -0.427207 -0.870223
v 0.257307 -0.066495 -0.985310
v 0.587783 0.000000 -0.809016
v 0.835144 -0.533684 -0.103222
v 0.951057 -0.000000 -0.309011
v 0.865818 -0.109451 -0.461896
v 0.372145 0.783228 -0.361540
v 0.389719 0.381883 -0.792505
v 0.299010 0.673444 -0.717788
v 0.790447 0.372871 -0.371539
v 0.740982 0.583983 -0.250219
v 0.752659 0.262287 -0.546841
v 0.688187 0.525736 -0.499994
v 0.215257 0.920394 -0.228093
v 0.155648 0.872652 -0.456272
v 0.511492 0.827613 -0.101871
v 0.295817 0.248507 -0.910450
v 0.273821 0.433785 -0.858543
v 0.555291 0.133869 -0.794748
v 0.912102 0.235965 -0.239472
v 0.891193 0.412111 -0.092180
v 0.839184 0.108979 -0.445146
vn -0.8897 -0.3304 0.3151
vn -0.5746 -0.3304 0.7488
vn -0.4963 -0.7958 0.3471
vn -0.8735 -0.3138 0.3723
vn -0.5791 -0.3668 0.7281
vn -0.5456 -0.3165 0.7760
vn -0.4804 -0.8120 0.3315
vn -0.4911 -0.7947 0.3568
vn -0.8999 0.2921 0.3237
vn -0.5614 0.3484 0.7506
vn -0.4269 0.6893 0.5853
vn -0.8419 0.4026 0.3592
vn -0.8813 0.3260 0.3423
vn -0.4986 0.3081 0.8102
vn -0.4768 0.3276 0.8157
vn -0.1941 0.7898 0.5818
vn -0.4687 0.6633 0.5834
vn -0.8898 -0.3655 -0.2733
vn -0.5746 -0.3304 -0.7488
vn -0.5217 -0.7999 -0.2968
vn -0.8770 -0.3172 -0.3608
vn -0.8897 -0.3304 -0.3151
vn -0.5791 -0.3668 -0.7281
vn -0.4775 -0.8190 -0.3183
vn -0.5262 -0.7451 -0.4097
vn -0.8999 0.2921 -0.3237
vn -0.5614 0.3484 -0.7506
vn -0.4815 0.7276 -0.4887
vn -0.8419 0.4026 -0.3592
vn -0.8100 0.3092 -0.4983
vn -0.4986 0.3081 -0.8102
vn -0.5609 0.3913 -0.7296
vn -0.1941 0.7898 -0.5818
vn -0.4687 0.6633 -0.5834
vn 0.9050 -0.3304 0.2680
vn 0.5587 -0.3533 0.7503
vn 0.4269 -0.6893 0.5853
vn 0.8834 -0.3354 0.3274
vn 0.4973 -0.2956 0.8157
vn 0.4953 -0.3108 0.8112
vn 0.1934 -0.7965 0.5729
vn 0.3184 -0.8103 0.4920
vn 0.8855 0.2823 0.3690
vn 0.5563 0.3644 0.7468
vn 0.4963 0.7958 0.3471
vn 0.8295 0.3938 0.3960
vn 0.8942 0.2657 0.3603
vn 0.5675 0.2839 0.7729
vn 0.5050 0.3443 0.7914
vn 0.4837 0.8035 0.3469
vn 0.4911 0.7947 0.3568
vn 0.9050 -0.3304 -0.2680
vn 0.5587 -0.3533 -0.7503
vn 0.4815 -0.7276 -0.4887
vn 0.8834 -0.3354 -0.3274
vn 0.4973 -0.2956 -0.8157
vn 0.5346 -0.3304 -0.7779
vn 0.1922 -0.8062 -0.5596
vn 0.4839 -0.6448 -0.5917
vn 0.8855 0.2823 -0.3690
vn 0.5563 0.3644 -0.7468
vn 0.5217 0.7999 -0.2968
vn 0.8410 0.4039 -0.3600
vn 0.8340 0.2857 -0.4721
vn 0.5675 0.2839 -0.7729
vn 0.6002 0.4069 -0.6886
vn 0.4837 0.8035 -0.3469
vn 0.4165 0.8323 -0.3658
vn -0.0174 -0.3529 0.9355
vn 0.1587 -0.9292 0.3337
vn 0.1454 -0.7470 0.6487
vn -0.0129 -0.5316 0.8469
vn -0.0235 0.1543 0.9877
vn -0.1466 0.7588 0.6346
vn -0.1069 0.7842 0.6112
vn 0.0129 0.5316 0.8469
vn 0.0857 -0.9374 -0.3375
vn -0.0174 -0.3529 -0.9355
vn 0.1454 -0.7470 -0.6487
vn -0.0071 -0.5059 -0.8626
vn 0.0892 0.9700 -0.2263
vn -0.0235 0.1543 -0.9877
vn -0.1069 0.7842 -0.6112
vn 0.0071 0.5059 -0.8626
vn -0.3510 -0.9016 -0.2529
vn -0.9825 -0.1819 0.0403
vn -0.7325 -0.6348 -0.2459
vn -0.7544 -0.6442 -0.1261
vn 0.5356 -0.8445 -0.0000
vn 0.9772 -0.2122 -0.0000
vn 0.6295 -0.7770 -0.0000
vn 0.6232 -0.7821 0.0000
vn -0.9821 0.1886 0.0000
vn -0.4238 0.9058 0.0000
vn -0.6295 0.7770 0.0000
vn -0.6232 0.7821 0.0000
vn 0.9930 0.1179 0.0000
vn 0.3040 0.9445 -0.1249
vn 0.6815 0.7204 -0.1289
vn 0.7544 0.6442 -0.1261
vn -0.8026 0.1256 0.5831
vn -0.4514 0.2387 0.8598
vn -0.8127 0.1686 0.5578
vn -0.8719 0.0948 0.4804
vn -0.8026 0.1256 -0.5831
vn -0.4514 0.2387 -0.8598
vn -0.8127 0.1686 -0.5578
vn -0.8719 0.0948 -0.4804
vn 0.4578 0.1522 0.8759
vn 0.8176 0.1425 0.5579
vn 0.7784 0.1256 0.6151
vn 0.8409 0.1254 0.5264
vn 0.4578 0.1522 -0.8759
vn 0.8176 0.1425 -0.5579
vn 0.7784 0.1256 -0.6151
vn 0.8409 0.1254 -0.5264
vn -0.9705 0.2412 0.0000
vn 0.9866 0.1629 0.0000
vn -0.0189 0.2430 0.9698
vn -0.0189 0.2430 -0.9698
vn 0.1549 -0.9599 -0.2336
vn 0.0572 0.9899 -0.1300
vn -0.5563 -0.3644 0.7468
vn -0.8295 -0.3938 0.3960
vn -0.5701 -0.2995 0.7651
vn -0.4837 -0.8035 0.3469
vn -0.4614 -0.8160 0.3482
vn -0.9050 0.3304 0.2680
vn -0.5587 0.3533 0.7503
vn -0.4815 0.7276 0.4887
vn -0.8834 0.3354 0.3274
vn -0.8100 0.3092 0.4983
vn -0.4973 0.2956 0.8157
vn -0.5609 0.3913 0.7296
vn -0.1975 0.7547 0.6256
vn -0.3126 0.8149 0.4881
vn -0.5563 -0.3644 -0.7468
vn -0.4963 -0.7958 -0.3471
vn -0.8410 -0.4039 -0.3600
vn -0.5701 -0.2995 -0.7651
vn -0.5456 -0.3165 -0.7760
vn -0.4837 -0.8035 -0.3469
vn -0.4362 -0.8184 -0.3740
vn -0.9050 0.3304 -0.2680
vn -0.5587 0.3533 -0.7503
vn -0.4269 0.6893 -0.5853
vn -0.8834 0.3354 -0.3274
vn -0.8813 0.3260 -0.3423
vn -0.4973 0.2956 -0.8157
vn -0.4768 0.3276 -0.8157
vn -0.2031 0.6612 -0.7222
vn -0.3468 0.7869 -0.5104
vn 0.5422 -0.3824 0.7482
vn 0.4815 -0.7276 0.4887
vn 0.8934 -0.3168 0.3185
vn 0.4987 -0.3086 0.8100
vn 0.5346 -0.3304 0.7779
vn 0.1941 -0.7898 0.5818
vn 0.4687 -0.6633 0.5834
vn 0.8897 0.3304 0.3151
vn 0.5997 0.2801 0.7496
vn 0.8422 0.3723 0.3899
vn 0.8340 0.2857 0.4721
vn 0.5791 0.3668 0.7281
vn 0.6002 0.4069 0.6886
vn 0.4866 0.7955 0.3611
vn 0.5422 -0.3824 -0.7482
vn 0.4269 -0.6893 -0.5853
vn 0.8934 -0.3168 -0.3185
vn 0.4987 -0.3086 -0.8100
vn 0.4953 -0.3108 -0.8112
vn 0.1941 -0.7898 -0.5818
vn 0.4687 -0.6633 -0.5834
vn 0.8898 0.3655 -0.2733
vn 0.5997 0.2801 -0.7496
vn 0.4963 0.7958 -0.3471
vn 0.8423 0.4011 -0.3601
vn 0.8942 0.2657 -0.3603
vn 0.5791 0.3668 -0.7281
vn 0.5050 0.3443 -0.7914
vn 0.4727 0.8297 -0.2971
vn 0.5262 0.7451 -0.4097
vn 0.0171 -0.3055 0.9520
vn -0.0574 -0.8719 0.4863
vn 0.1069 -0.7842 0.6112
vn -0.0071 -0.5059 0.8626
vn 0.0191 0.2718 0.9622
vn 0.1810 0.9227 0.3404
vn -0.1454 0.7470 0.6487
vn 0.0071 0.5059 0.8626
vn 0.1587 -0.9584 -0.2373
vn 0.0171 -0.3055 -0.9520
vn 0.1069 -0.7842 -0.6112
vn -0.0129 -0.5316 -0.8469
vn -0.1392 0.6873 -0.7129
vn 0.0191 0.2718 -0.9622
vn -0.1454 0.7470 -0.6487
vn 0.0129 0.5316 -0.8469
vn -0.3873 -0.9023 -0.1894
vn -0.9896 -0.1438 0.0000
vn -0.6815 -0.7204 -0.1289
vn -0.8145 -0.5542 -0.1715
vn 0.4753 -0.8790 -0.0374
vn -0.3452 0.9363 -0.0643
vn 0.9816 0.1872 0.0375
vn 0.3861 0.8867 -0.2545
vn 0.7325 0.6348 -0.2459
vn 0.8145 0.5542 -0.1715
vn -0.8687 0.2290 0.4392
vn -0.4308 0.2064 0.8785
vn -0.7587 0.0638 0.6484
vn -0.8288 0.0640 0.5558
vn -0.8687 0.2290 -0.4392
vn -0.4308 0.2064 -0.8785
vn -0.7587 0.0638 -0.6484
vn -0.8288 0.0640 -0.5558
vn 0.4300 0.1982 0.8808
vn 0.8392 0.2765 0.4683
vn 0.6947 0.2408 0.6778
vn 0.4300 0.1982 -0.8808
vn 0.8392 0.2765 -0.4683
vn 0.6947 0.2408 -0.6778
vn -0.0243 0.2340 0.9719
vn -0.0243 0.2340 -0.9719
vn 0.1089 -0.9760 -0.1887
vn 0.0628 0.9900 -0.1263
usemtl None
s off
f 10//1 13//1 12//1
f 10//2 15//2 11//2
f 10//3 16//3 14//3
f 2//4 13//4 3//4
f 1//1 13//1 11//1
f 5//5 15//5 14//5
f 4//6 15//6 6//6
f 8//7 16//7 9//7
f 7//8 16//8 12//8
f 24//9 25//9 23//9
f 27//10 24//10 23//10
f 29//11 24//11 28//11
f 25//12 19//12 18//12
f 25//13 17//13 23//13
f 22//14 27//14 21//14
f 27//15 20//15 21//15
f 31//16 29//16 28//16
f 29//17 30//17 26//17
f 40//18 41//18 39//18
f 45//19 41//19 42//19
f 41//20 43//20 39//20
f 40//21 33//21 34//21
f 35//22 40//22 34//22
f 45//23 47//23 44//23
f 46//19 45//19 42//19
f 43//24 38//24 37//24
f 43//25 36//25 39//25
f 52//26 55//26 54//26
f 55//27 57//27 54//27
f 56//28 55//28 53//28
f 50//29 52//29 49//29
f 52//30 51//30 49//30
f 57//31 64//31 63//31
f 57//32 62//32 54//32
f 56//33 61//33 58//33
f 59//34 56//34 53//34
f 77//35 74//35 76//35
f 74//36 72//36 71//36
f 73//37 74//37 71//37
f 79//38 77//38 76//38
f 77//35 78//35 75//35
f 72//39 65//39 71//39
f 72//40 67//40 66//40
f 73//41 68//41 69//41
f 70//42 73//42 69//42
f 89//43 88//43 87//43
f 84//44 88//44 85//44
f 88//45 86//45 85//45
f 89//46 96//46 90//46
f 94//47 89//47 87//47
f 84//48 82//48 81//48
f 83//49 84//49 81//49
f 86//50 91//50 85//50
f 86//51 93//51 92//51
f 105//52 104//52 103//52
f 102//53 105//53 101//53
f 100//54 105//54 103//54
f 104//55 110//55 103//55
f 104//52 112//52 111//52
f 107//56 102//56 101//56
f 102//57 109//57 106//57
f 98//58 100//58 97//58
f 100//59 99//59 97//59
f 119//60 116//60 118//60
f 119//61 114//61 115//61
f 119//62 113//62 117//62
f 127//63 116//63 117//63
f 128//64 116//64 126//64
f 124//65 114//65 123//65
f 125//66 114//66 118//66
f 121//67 113//67 115//67
f 122//68 113//68 120//68
f 65//69 6//69 5//69
f 9//70 68//70 8//70
f 68//71 14//71 8//71
f 5//72 71//72 65//72
f 81//73 22//73 21//73
f 91//74 32//74 31//74
f 85//75 31//75 28//75
f 82//76 28//76 22//76
f 37//77 98//77 97//77
f 48//78 107//78 47//78
f 44//79 98//79 38//79
f 47//80 101//80 44//80
f 121//81 60//81 120//81
f 64//82 123//82 63//82
f 61//83 115//83 58//83
f 124//84 58//84 115//84
f 36//85 9//85 7//85
f 3//86 33//86 2//86
f 12//87 36//87 7//87
f 2//88 39//88 12//88
f 69//89 99//89 70//89
f 111//90 79//90 110//90
f 103//91 70//91 99//91
f 103//92 79//92 76//92
f 19//93 49//93 18//93
f 32//94 59//94 30//94
f 30//95 53//95 26//95
f 53//96 19//96 26//96
f 127//97 95//97 126//97
f 93//98 120//98 92//98
f 122//99 90//99 117//99
f 96//100 117//100 90//100
f 17//101 3//101 1//101
f 4//102 21//102 20//102
f 20//103 11//103 4//103
f 1//104 23//104 17//104
f 34//105 51//105 35//105
f 63//106 46//106 62//106
f 42//107 62//107 46//107
f 54//108 35//108 51//108
f 66//109 83//109 81//109
f 80//110 94//110 78//110
f 87//111 67//111 75//111
f 75//112 94//112 87//112
f 125//113 108//113 123//113
f 128//114 111//114 112//114
f 109//115 118//115 106//115
f 128//116 106//116 118//116
f 18//117 34//117 3//117
f 126//118 80//118 111//118
f 66//119 21//119 6//119
f 63//120 108//120 48//120
f 37//121 69//121 9//121
f 120//122 32//122 92//122
f 10//1 11//1 13//1
f 10//123 14//123 15//123
f 10//8 12//8 16//8
f 2//124 12//124 13//124
f 1//1 3//1 13//1
f 5//125 6//125 15//125
f 4//2 11//2 15//2
f 8//126 14//126 16//126
f 7//127 9//127 16//127
f 24//128 26//128 25//128
f 27//129 28//129 24//129
f 29//130 26//130 24//130
f 25//131 26//131 19//131
f 25//132 18//132 17//132
f 22//133 28//133 27//133
f 27//134 23//134 20//134
f 31//135 32//135 29//135
f 29//136 32//136 30//136
f 40//22 42//22 41//22
f 45//137 44//137 41//137
f 41//138 44//138 43//138
f 40//139 39//139 33//139
f 35//22 42//22 40//22
f 45//140 48//140 47//140
f 46//141 48//141 45//141
f 43//142 44//142 38//142
f 43//143 37//143 36//143
f 52//144 53//144 55//144
f 55//145 58//145 57//145
f 56//146 58//146 55//146
f 50//147 53//147 52//147
f 52//148 54//148 51//148
f 57//149 58//149 64//149
f 57//150 63//150 62//150
f 56//151 60//151 61//151
f 59//152 60//152 56//152
f 77//35 75//35 74//35
f 74//153 75//153 72//153
f 73//154 76//154 74//154
f 79//155 80//155 77//155
f 77//35 80//35 78//35
f 72//156 66//156 65//156
f 72//157 75//157 67//157
f 73//158 71//158 68//158
f 70//159 76//159 73//159
f 89//160 90//160 88//160
f 84//161 87//161 88//161
f 88//51 90//51 86//51
f 89//162 95//162 96//162
f 94//163 95//163 89//163
f 84//164 85//164 82//164
f 83//165 87//165 84//165
f 86//166 92//166 91//166
f 86//51 90//51 93//51
f 105//52 106//52 104//52
f 102//167 106//167 105//167
f 100//168 101//168 105//168
f 104//169 111//169 110//169
f 104//52 106//52 112//52
f 107//170 108//170 102//170
f 102//171 108//171 109//171
f 98//172 101//172 100//172
f 100//173 103//173 99//173
f 119//174 117//174 116//174
f 119//175 118//175 114//175
f 119//176 115//176 113//176
f 127//177 126//177 116//177
f 128//178 118//178 116//178
f 124//179 115//179 114//179
f 125//180 123//180 114//180
f 121//181 120//181 113//181
f 122//182 117//182 113//182
f 65//183 66//183 6//183
f 9//184 69//184 68//184
f 68//185 71//185 14//185
f 5//186 14//186 71//186
f 81//187 82//187 22//187
f 91//188 92//188 32//188
f 85//189 91//189 31//189
f 82//190 85//190 28//190
f 37//191 38//191 98//191
f 48//192 108//192 107//192
f 44//193 101//193 98//193
f 47//194 107//194 101//194
f 121//195 61//195 60//195
f 64//196 124//196 123//196
f 61//197 121//197 115//197
f 124//198 64//198 58//198
f 36//199 37//199 9//199
f 3//200 34//200 33//200
f 12//201 39//201 36//201
f 2//202 33//202 39//202
f 69//203 97//203 99//203
f 111//90 80//90 79//90
f 103//91 76//91 70//91
f 103//92 110//92 79//92
f 19//93 50//93 49//93
f 32//204 60//204 59//204
f 30//95 59//95 53//95
f 53//96 50//96 19//96
f 127//205 96//205 95//205
f 93//206 122//206 120//206
f 122//207 93//207 90//207
f 96//208 127//208 117//208
f 17//209 18//209 3//209
f 4//210 6//210 21//210
f 20//211 23//211 11//211
f 1//212 11//212 23//212
f 34//213 49//213 51//213
f 63//214 48//214 46//214
f 42//215 54//215 62//215
f 54//216 42//216 35//216
f 66//217 67//217 83//217
f 80//218 95//218 94//218
f 87//219 83//219 67//219
f 75//110 78//110 94//110
f 125//220 109//220 108//220
f 128//221 126//221 111//221
f 109//222 125//222 118//222
f 128//114 112//114 106//114
f 18//117 49//117 34//117
f 126//118 95//118 80//118
f 66//223 81//223 21//223
f 63//224 123//224 108//224
f 37//225 97//225 69//225
f 120//226 60//226 32//226
